<?xml version="1.0" standalone="no"?>
<!DOCTYPE svg PUBLIC "-//W3C//DTD SVG 20010904//EN"
 "http://www.w3.org/TR/2001/REC-SVG-20010904/DTD/svg10.dtd">
<svg version="1.0" xmlns="http://www.w3.org/2000/svg"
 width="676.000000pt" height="277.000000pt" viewBox="0 0 676.000000 277.000000"
 preserveAspectRatio="xMidYMid meet">

<g transform="translate(0.000000,277.000000) scale(0.100000,-0.100000)"
fill="#ffffff" stroke="none">
<path d="M1169 2750 c-565 -89 -1026 -527 -1140 -1083 -60 -296 -23 -605 105
-873 73 -151 142 -250 258 -370 161 -165 338 -278 548 -348 151 -50 269 -69
440 -69 171 0 289 19 440 69 563 188 940 713 940 1309 0 215 -44 403 -139 600
-75 154 -159 270 -281 389 -182 176 -385 290 -634 353 -87 22 -127 26 -291 28
-104 2 -215 0 -246 -5z m361 -60 c439 -54 819 -318 1018 -707 99 -195 144
-380 144 -598 -1 -352 -130 -670 -371 -915 -268 -272 -614 -411 -986 -397
-260 10 -485 84 -695 227 -291 200 -494 517 -555 866 -19 112 -19 327 0 440
77 442 389 830 797 993 212 85 436 117 648 91z"/>
<path d="M1232 2649 c-425 -49 -795 -309 -988 -692 -91 -180 -134 -363 -134
-571 0 -353 121 -647 370 -897 188 -189 388 -298 650 -355 119 -26 381 -26
500 0 247 53 445 157 624 326 157 149 265 316 330 510 48 143 66 257 66 415 0
267 -68 493 -217 717 -68 104 -239 272 -351 345 -251 165 -553 236 -850 202z
m169 -586 l2 -398 13 189 c7 104 16 191 20 195 3 3 4 -66 1 -154 l-6 -160 36
260 c19 143 37 262 39 264 14 15 9 -36 -26 -304 -22 -165 -39 -303 -37 -308 1
-4 31 128 66 293 36 165 68 300 73 300 5 0 6 -10 3 -22 -32 -138 -105 -494
-102 -501 1 -5 23 61 47 147 24 86 47 156 52 156 5 0 7 -8 4 -17 -49 -167 -86
-306 -83 -309 2 -2 59 150 126 339 113 312 141 382 141 349 0 -6 -58 -172
-129 -369 -72 -197 -129 -359 -127 -360 1 -2 36 74 77 167 40 94 77 170 81
170 12 0 14 5 -62 -165 -38 -87 -68 -160 -67 -162 2 -1 64 112 137 253 74 141
136 251 138 245 2 -6 -56 -125 -129 -264 -162 -310 -151 -287 -145 -287 2 0
50 73 107 163 191 301 230 359 235 354 4 -4 -173 -291 -293 -474 -8 -13 -13
-23 -10 -23 3 0 51 63 107 140 56 77 107 140 112 140 10 0 -2 -18 -150 -219
-46 -62 -80 -111 -76 -108 5 3 126 142 269 310 143 168 261 301 263 296 2 -5
-88 -116 -199 -246 -111 -131 -227 -267 -258 -303 -34 -40 -1 -12 87 75 78 77
142 135 142 130 0 -6 -61 -71 -135 -145 -74 -74 -132 -136 -130 -138 2 -2 98
80 212 184 114 103 218 197 231 207 12 11 22 16 22 10 0 -5 -84 -86 -187 -179
-249 -226 -263 -240 -231 -217 15 10 124 92 243 182 118 90 218 161 221 158 3
-3 -96 -82 -220 -176 -124 -95 -226 -174 -226 -177 0 -2 65 39 145 93 80 53
147 94 150 91 3 -3 -71 -56 -165 -118 -93 -62 -170 -115 -170 -117 0 -3 15 4
33 15 150 90 679 383 683 379 6 -6 -38 -33 -419 -247 -151 -85 -274 -156 -273
-158 2 -1 81 36 177 82 96 46 176 82 178 80 8 -8 -14 -20 -170 -95 -87 -41
-156 -75 -155 -76 1 -1 110 40 241 92 132 53 257 102 278 110 20 8 37 11 37 7
0 -5 -128 -59 -285 -122 -157 -62 -284 -115 -282 -116 1 -1 132 37 291 87 248
76 317 94 295 75 -2 -1 -126 -41 -276 -87 -150 -46 -271 -85 -269 -86 2 -2 76
14 164 37 168 42 192 46 176 31 -5 -5 -83 -26 -172 -47 -172 -40 -204 -57 -56
-29 47 9 88 14 91 11 4 -4 -32 -13 -147 -35 -25 -5 -36 -9 -25 -10 24 -2 -73
-37 -241 -87 l-123 -37 -190 59 c-104 32 -187 62 -185 66 3 4 -4 8 -15 8 -29
0 -123 21 -118 26 3 3 48 -3 101 -12 54 -9 99 -15 101 -13 2 2 -82 24 -186 48
-104 25 -189 49 -189 54 0 4 8 6 18 3 47 -14 325 -76 328 -73 2 1 -116 38
-261 82 -145 43 -270 82 -277 86 -32 21 33 4 296 -76 154 -46 281 -83 283 -81
2 1 -122 51 -275 110 -251 98 -315 126 -286 126 5 0 130 -47 278 -105 148 -58
271 -104 273 -101 3 2 -5 7 -16 11 -47 15 -313 146 -308 152 3 3 79 -29 169
-72 90 -42 170 -79 178 -82 8 -3 -142 83 -335 191 -192 108 -352 201 -354 207
-2 7 0 9 5 6 5 -2 149 -82 319 -177 171 -94 329 -183 353 -196 88 -51 36 -13
-123 91 -91 59 -165 111 -165 116 0 8 101 -54 234 -144 120 -81 40 -15 -174
144 -122 90 -217 165 -211 167 5 2 110 -72 233 -164 123 -92 230 -172 238
-177 32 -23 -33 38 -225 208 -188 168 -216 195 -200 195 4 0 109 -91 233 -202
291 -259 297 -263 115 -77 -84 85 -153 159 -153 164 0 5 64 -53 142 -130 78
-77 131 -126 117 -110 -15 17 -133 153 -263 304 -130 150 -234 276 -231 279 7
8 4 11 270 -298 288 -335 303 -350 163 -160 -129 176 -132 180 -121 180 5 0
55 -63 111 -140 57 -77 105 -140 108 -140 7 0 15 -14 -158 254 -82 126 -147
233 -146 238 2 6 84 -114 182 -266 98 -152 180 -276 182 -276 2 0 -9 24 -25
53 -25 46 -239 445 -270 505 -6 12 -8 22 -3 22 6 0 70 -112 143 -250 73 -137
134 -248 136 -246 2 1 -29 74 -68 160 -39 87 -68 160 -65 163 6 6 55 -96 126
-259 18 -43 35 -77 36 -75 2 1 -58 167 -132 367 -73 200 -134 366 -134 367 0
2 4 3 8 3 4 0 66 -157 137 -350 71 -192 131 -348 133 -346 2 2 -18 75 -43 161
-26 86 -44 159 -41 162 7 8 17 -19 61 -174 21 -73 40 -131 43 -129 2 2 -22
118 -52 256 -58 261 -61 278 -49 266 5 -4 38 -141 75 -304 36 -163 67 -290 67 
-282 1 8 -17 142 -39 298 -42 297 -44 320 -33 308 4 -4 24 -123 44 -264 35
-246 47 -270 30 -57 -5 57 -5 104 0 109 5 6 9 -6 10 -30 0 -21 7 -106 14 -189
l12 -150 2 393 c1 254 5 392 11 392 6 0 10 -140 11 -397z m912 -565 c9 -18 13
-36 9 -40 -8 -8 -733 -160 -744 -156 -6 3 695 226 713 227 4 1 14 -14 22 -31z
m-1481 -85 c196 -59 355 -110 353 -112 -2 -1 -171 30 -374 70 -328 65 -371 75
-371 92 0 21 17 57 28 57 4 1 167 -48 364 -107z m-37 -57 c215 -41 378 -75
364 -75 -15 -1 -195 15 -400 34 -206 19 -378 35 -383 35 -10 0 2 50 16 67 6 7
11 13 12 13 0 0 177 -34 391 -74z m1589 42 c5 -15 7 -31 3 -34 -8 -8 -762 -85
-792 -82 -30 4 704 147 745 145 28 -2 36 -7 44 -29z m44 -91 c7 -15 10 -32 7
-37 -4 -6 -159 -10 -433 -9 l-427 1 390 38 c215 21 403 37 420 36 22 -1 33 -8
43 -29z m-1638 -11 l385 -34 -226 -1 c-124 0 -314 -4 -422 -8 l-197 -6 0 29
c0 37 16 54 50 53 14 0 198 -15 410 -33z m1688 -63 c-3 -17 -36 -18 -500 -21
-484 -2 -498 -3 -508 -22 -13 -25 -61 -50 -96 -50 -17 0 -39 13 -62 36 l-36
36 -485 -2 c-267 -1 -492 -1 -498 -1 -7 1 -13 8 -13 16 0 19 67 20 1278 23
875 2 923 1 920 -15z m-1690 -349 c24 -16 29 -53 12 -85 -6 -10 -16 -19 -22
-19 -9 0 -9 3 0 12 17 17 15 73 -2 88 -8 6 -25 10 -38 8 -20 -3 -23 -8 -23
-53 0 -44 3 -50 25 -56 23 -6 22 -7 -7 -8 l-33 -1 0 65 0 65 33 0 c18 0 43 -7
55 -16z m232 -4 c58 -58 -20 -142 -88 -94 -15 10 -22 25 -22 49 0 58 69 86
110 45z m114 11 c3 -4 -6 -6 -19 -3 -34 6 -33 -22 0 -44 45 -29 20 -89 -28
-66 -21 11 -20 11 5 6 36 -8 51 22 22 42 -41 29 -45 34 -34 54 11 20 44 27 54
11z m154 2 c-22 -3 -28 -10 -28 -29 0 -18 6 -24 23 -25 l22 -2 -23 -4 c-32 -6
-27 -48 6 -47 12 0 22 -3 22 -8 0 -4 -13 -8 -30 -8 l-30 0 0 65 0 65 33 -1
c30 -2 30 -2 5 -6z m122 -2 c0 -4 -11 -6 -25 -3 -34 6 -34 -24 -1 -40 33 -14
40 -37 20 -59 -18 -20 -39 -25 -48 -10 -4 5 3 7 14 4 33 -9 38 26 7 49 -26 19
-35 47 -20 61 9 10 53 8 53 -2z m159 -13 c5 -13 16 -40 25 -60 9 -21 12 -38 7
-38 -5 0 -13 9 -16 20 -4 13 -15 20 -32 20 -16 0 -27 -7 -30 -20 -3 -11 -9
-20 -14 -20 -5 0 -1 16 8 36 10 19 19 31 21 25 3 -10 32 -16 32 -7 0 15 -14
35 -21 30 -11 -6 -11 -1 -3 20 8 21 13 20 23 -6z m210 -75 c1 -42 -18 -24 -21
20 l-3 42 -24 -45 -23 -44 -23 43 -22 44 -7 -43 c-9 -59 -17 -45 -9 18 7 59
15 65 33 22 22 -52 33 -53 60 -2 l25 46 7 -40 c4 -21 7 -49 7 -61z m151 77
c11 -11 20 -28 20 -38 0 -21 -27 -62 -41 -62 -6 0 -3 7 5 16 19 18 21 65 4 82
-15 15 -61 15 -76 0 -17 -17 -15 -58 5 -80 9 -10 11 -18 5 -18 -15 0 -42 40
-42 62 0 28 37 58 70 58 17 0 39 -9 50 -20z m129 -4 c2 -11 -4 -25 -13 -31
-15 -11 -14 -15 5 -39 11 -14 16 -26 12 -26 -5 0 -19 13 -31 29 l-21 29 21 14
c24 16 17 38 -13 38 -16 0 -19 -7 -19 -55 0 -30 -3 -55 -7 -55 -5 0 -8 27 -8
60 l0 61 35 -3 c25 -2 36 -8 39 -22z m-1189 -46 c0 -33 -4 -60 -10 -60 -6 0
-10 27 -10 60 0 33 4 60 10 60 6 0 10 -27 10 -60z m1305 10 c0 -8 -8 -16 -17
-18 -13 -2 -18 3 -18 18 0 15 5 20 18 18 9 -2 17 -10 17 -18z m-1547 -7 c-2
-10 -10 -18 -18 -18 -8 0 -16 8 -18 18 -2 12 3 17 18 17 15 0 20 -5 18 -17z
m842 -249 c0 -2 -16 -4 -35 -4 -19 0 -35 4 -35 8 0 4 16 6 35 4 19 -2 35 -6
35 -8z m-233 -76 c-2 -18 -4 -6 -4 27 0 33 2 48 4 33 2 -15 2 -42 0 -60z m81
65 c-2 -10 4 -19 15 -21 12 -2 17 3 17 18 0 12 5 18 10 15 7 -4 7 -12 0 -25
-7 -13 -7 -21 0 -25 12 -7 13 -42 2 -49 -4 -2 -8 8 -7 22 0 20 -5 27 -20 27
-15 0 -20 -7 -20 -27 1 -14 -3 -24 -7 -22 -12 7 -10 42 2 49 8 5 7 11 0 20 -7
8 -9 19 -5 25 10 15 16 12 13 -7z m196 3 c-3 -8 0 -17 6 -21 8 -5 8 -11 -1
-21 -6 -8 -9 -23 -6 -35 4 -17 3 -18 -9 -8 -13 10 -13 15 0 34 10 16 12 25 4
33 -6 6 -7 15 -4 21 10 16 16 14 10 -3z m44 -11 c-3 -14 -1 -28 3 -31 12 -7
11 -41 -1 -49 -7 -4 -9 2 -5 18 4 14 2 27 -3 31 -9 5 -4 56 5 56 3 0 3 -11 1
-25z"/>
<path d="M1352 1710 c0 -14 2 -19 5 -12 2 6 2 18 0 25 -3 6 -5 1 -5 -13z"/>
<path d="M1422 1705 c0 -16 2 -22 5 -12 2 9 2 23 0 30 -3 6 -5 -1 -5 -18z"/>
<path d="M1301 1684 c0 -11 3 -14 6 -6 3 7 2 16 -1 19 -3 4 -6 -2 -5 -13z"/>
<path d="M1471 1684 c0 -11 3 -14 6 -6 3 7 2 16 -1 19 -3 4 -6 -2 -5 -13z"/>
<path d="M1698 1413 c7 -3 16 -2 19 1 4 3 -2 6 -13 5 -11 0 -14 -3 -6 -6z"/>
<path d="M942 878 c-16 -16 -16 -70 0 -86 7 -7 21 -12 33 -12 30 0 45 19 45
55 0 36 -15 55 -45 55 -12 0 -26 -5 -33 -12z"/>
<path d="M3084 2346 c-40 -18 -58 -63 -42 -106 8 -23 25 -38 68 -60 64 -32 72
-43 58 -80 -18 -47 -66 -54 -102 -15 l-24 25 -6 -22 c-9 -35 -8 -36 29 -48
134 -44 216 123 87 177 -50 20 -72 42 -72 69 0 42 58 58 87 25 19 -23 33 -19
33 10 0 12 -10 23 -26 29 -33 13 -52 12 -90 -4z"/>
<path d="M3350 2338 c-55 -28 -80 -73 -80 -143 0 -96 62 -155 163 -155 125 0
197 87 167 202 -28 105 -143 149 -250 96z m150 -21 c37 -28 50 -62 50 -124 0
-54 -4 -67 -27 -93 -20 -22 -40 -33 -69 -37 -86 -11 -140 52 -132 155 4 47 10
60 37 84 25 22 41 28 79 28 26 0 54 -6 62 -13z"/>
<path d="M3731 2343 c-114 -60 -113 -230 1 -289 56 -29 178 -10 178 27 0 19
-1 19 -37 -1 -45 -24 -62 -25 -109 -5 -62 26 -86 143 -44 212 28 47 88 61 140
34 l39 -20 6 20 c10 29 2 33 -73 37 -50 2 -76 -1 -101 -15z"/>
<path d="M4733 2205 c-66 -144 -70 -155 -50 -155 17 0 27 12 42 53 l21 52 55
3 55 3 20 -58 c18 -50 25 -58 49 -61 23 -3 27 -1 21 15 -60 157 -123 303 -131
302 -5 0 -42 -69 -82 -154z m103 -12 c-2 -2 -19 -3 -38 -1 l-34 3 19 45 20 45
19 -44 c10 -24 17 -46 14 -48z"/>
<path d="M5028 2353 l-58 -4 0 -156 0 -155 88 4 c142 7 197 52 197 162 0 122
-58 161 -227 149z m117 -37 c38 -16 52 -37 55 -81 5 -77 0 -97 -34 -131 -31
-31 -40 -34 -90 -34 l-56 0 0 124 c0 90 3 126 13 129 24 10 78 7 112 -7z"/>
<path d="M3993 2195 l-2 -155 25 0 c24 0 24 0 24 109 0 59 3 129 6 155 7 46 6
46 -22 46 l-29 0 -2 -155z"/>
<path d="M4150 2195 l0 -155 85 0 c74 0 85 2 85 18 0 15 -8 17 -60 14 l-60 -4
0 61 0 61 55 0 c42 0 55 3 55 15 0 12 -13 15 -55 15 l-55 0 0 50 0 50 58 0
c46 0 59 3 59 15 0 12 -16 15 -84 15 l-83 0 0 -155z"/>
<path d="M4395 2196 l0 -156 81 0 c145 0 209 56 202 178 -4 55 -8 67 -36 95
-32 32 -34 32 -140 35 l-108 4 1 -156z m200 100 c47 -47 45 -148 -5 -198 -24
-24 -36 -28 -83 -28 -41 0 -56 4 -61 16 -3 9 -6 65 -6 125 l0 109 65 0 c56 0
69 -4 90 -24z"/>
<path d="M5273 1901 c-56 -26 -83 -71 -83 -139 0 -93 48 -152 129 -160 69 -6
119 5 132 29 16 30 6 33 -32 10 -96 -59 -187 13 -177 137 4 47 10 60 37 84 37
33 96 38 136 12 23 -15 25 -15 31 1 10 26 -11 38 -73 42 -42 3 -69 -2 -100
-16z"/>
<path d="M6117 1898 c-98 -58 -100 -200 -5 -271 53 -40 198 -27 198 17 0 18
-15 21 -25 6 -11 -18 -74 -29 -111 -19 -50 14 -74 58 -74 135 0 74 22 108 80
125 34 10 44 9 78 -9 l40 -21 6 22 c3 12 3 24 0 26 -3 3 -38 7 -77 9 -60 2
-78 -1 -110 -20z"/>
<path d="M6585 1867 c-12 -29 -44 -97 -69 -151 -25 -55 -46 -101 -46 -102 0
-2 8 -4 18 -4 13 0 25 17 41 55 l23 55 53 0 53 0 22 -60 c19 -50 26 -60 46
-60 13 0 24 3 24 7 0 18 -125 313 -133 313 -4 0 -19 -24 -32 -53z m40 -63 c21
-51 20 -54 -20 -54 -19 0 -35 2 -35 5 0 9 32 85 36 85 2 0 11 -16 19 -36z"/>
<path d="M3448 1902 l-78 -3 0 -154 0 -155 85 0 c75 0 85 2 85 18 0 16 -7 18
-60 14 l-60 -4 0 61 0 61 55 0 c42 0 55 3 55 15 0 12 -13 15 -55 15 l-55 0 0
50 0 50 60 0 c46 0 60 3 60 14 0 20 -5 21 -92 18z"/>
<path d="M4088 1902 l-78 -3 0 -154 0 -155 85 0 c75 0 85 2 85 18 0 16 -7 18
-60 14 l-60 -4 0 61 0 61 55 0 c42 0 55 3 55 15 0 12 -13 15 -55 15 l-55 0 0
50 0 49 59 3 c47 2 57 6 52 18 -5 12 -22 14 -83 12z"/>
<path d="M4250 1818 c0 -51 -3 -123 -7 -160 -6 -65 -5 -68 15 -68 20 0 21 6
24 112 l3 113 103 -115 c57 -63 107 -115 110 -115 4 0 9 71 12 158 5 144 4
157 -12 157 -15 0 -18 -14 -20 -112 l-3 -112 -104 114 c-57 63 -108 117 -112
118 -5 2 -9 -38 -9 -90z"/>
<path d="M4566 1900 c-1 -3 0 -74 2 -158 l3 -153 81 3 c68 3 82 7 84 21 2 16
-4 17 -57 11 -57 -6 -59 -6 -59 17 0 13 -3 41 -6 62 l-7 37 57 0 c49 0 56 3
56 19 0 18 -5 19 -56 14 l-55 -6 3 54 3 54 58 -3 c51 -4 57 -2 57 16 0 18 -6
20 -81 18 -44 0 -82 -3 -83 -6z"/>
<path d="M4800 1751 l0 -156 25 -1 c25 -2 25 -1 25 72 l0 74 55 0 c48 0 55 3
55 19 0 18 -5 19 -55 14 l-55 -6 0 56 0 57 60 -7 c55 -5 60 -4 60 14 0 17 -8
19 -85 20 l-85 1 0 -157z"/>
<path d="M5080 1808 c0 -57 -3 -127 -6 -155 -7 -52 -6 -53 20 -53 l26 0 0 94
c0 51 3 121 6 155 7 61 7 61 -20 61 l-26 0 0 -102z"/>
<path d="M5514 1873 c3 -21 6 -91 6 -155 l0 -118 80 0 c63 0 80 3 80 15 0 10
-15 15 -57 17 l-58 3 -3 59 -3 59 55 -5 c49 -4 56 -2 56 14 0 15 -8 18 -55 18
l-55 0 0 51 0 51 60 -4 c52 -3 60 -1 60 15 0 15 -11 17 -86 17 l-87 0 7 -37z"/>
<path d="M5730 1801 c0 -59 -3 -129 -6 -155 -6 -42 -5 -46 15 -46 20 0 21 4
21 113 l1 112 37 -40 c20 -22 69 -76 109 -120 39 -44 74 -78 77 -75 2 3 6 75
7 160 2 127 -1 155 -12 155 -11 0 -15 -25 -19 -111 l-5 -110 -103 113 c-57 62
-108 113 -113 113 -5 0 -9 -49 -9 -109z"/>
<path d="M6360 1755 l0 -155 25 0 24 0 3 155 3 155 -27 0 -28 0 0 -155z"/>
<path d="M3044 1744 l1 -156 92 4 c102 3 128 16 171 79 45 65 18 182 -49 216
-14 8 -64 13 -120 13 l-97 0 2 -156z m200 103 c48 -48 41 -166 -11 -206 -19
-16 -40 -21 -84 -21 l-59 0 0 125 0 125 65 0 c56 0 70 -4 89 -23z"/>
<path d="M3745 1745 l0 -155 58 0 c66 0 121 19 136 48 20 37 13 79 -15 101
l-26 20 21 27 c27 35 27 65 -2 92 -20 19 -35 22 -98 22 l-74 0 0 -155z m123
119 c46 -32 13 -94 -50 -94 -26 0 -28 3 -28 39 0 22 3 46 6 55 8 20 43 20 72
0z m14 -141 c39 -36 9 -103 -46 -103 -37 0 -46 15 -46 83 0 36 1 37 37 37 20
0 45 -7 55 -17z"/>
<path d="M4342 1475 c-12 -9 -22 -23 -22 -31 0 -17 12 -18 27 -3 8 8 21 8 47
-2 31 -11 38 -11 56 6 21 19 27 45 10 45 -5 0 -10 -5 -10 -11 0 -11 -35 -8
-70 5 -8 4 -25 -1 -38 -9z"/>
<path d="M4671 1408 c-58 -30 -80 -62 -87 -123 -4 -40 -1 -59 18 -95 31 -59
76 -85 149 -84 103 1 169 63 169 159 0 90 -58 152 -151 161 -44 4 -62 1 -98
-18z m159 -36 c35 -35 48 -105 31 -163 -15 -48 -59 -79 -114 -79 -51 0 -106
51 -109 102 -5 120 28 167 120 168 35 0 49 -6 72 -28z"/>
<path d="M5325 1278 c-39 -84 -72 -156 -74 -161 -2 -5 7 -7 19 -5 16 2 27 18
43 58 l22 55 52 3 51 3 23 -61 c21 -52 27 -60 50 -60 l27 0 -64 156 c-35 86
-64 158 -64 160 0 2 -3 4 -8 4 -4 0 -39 -68 -77 -152z m88 22 l15 -40 -38 0
-38 0 15 40 c9 22 19 40 23 40 4 0 14 -18 23 -40z"/>
<path d="M5625 1418 c-32 -17 -45 -39 -45 -78 0 -39 26 -72 67 -84 31 -10 73
-45 73 -62 0 -19 -45 -64 -64 -64 -8 0 -28 11 -44 25 l-30 25 -6 -23 c-8 -31
18 -47 75 -47 58 0 96 27 105 76 9 51 -4 72 -71 107 -62 33 -80 62 -55 93 18
21 66 18 83 -6 16 -23 27 -17 27 16 0 32 -71 46 -115 22z"/>
<path d="M3786 1399 c-21 -16 -26 -29 -26 -63 0 -49 11 -62 82 -95 54 -26 67
-51 44 -86 -21 -32 -68 -33 -97 -4 -23 23 -24 23 -33 -8 -6 -19 -2 -25 19 -33
83 -32 165 15 165 94 0 34 -21 56 -81 85 -42 21 -55 33 -57 53 -2 20 4 31 23
44 25 16 27 16 55 -5 16 -11 32 -21 35 -21 13 0 3 48 -11 54 -34 13 -92 6
-118 -15z"/>
<path d="M4108 1413 l-78 -4 0 -154 0 -155 85 0 c77 0 85 2 85 19 0 17 -6 19
-60 14 l-60 -6 0 62 0 61 53 0 c41 0 54 4 54 15 0 11 -13 15 -54 15 l-53 0 0
50 0 50 55 0 c48 0 55 2 55 20 0 11 -1 19 -2 18 -2 -1 -38 -4 -80 -5z"/>
<path d="M4260 1337 c0 -46 -3 -118 -6 -160 -7 -74 -6 -77 14 -77 20 0 21 6
24 112 l3 112 105 -118 105 -118 7 53 c3 30 6 102 7 162 1 89 -2 107 -14 107
-12 0 -15 -19 -15 -110 0 -60 -3 -110 -7 -109 -5 0 -53 52 -108 114 -55 62
-103 114 -107 114 -5 1 -8 -37 -8 -82z"/>
<path d="M3044 1255 l1 -155 80 0 c136 0 205 54 205 160 0 108 -54 150 -196
150 l-92 0 2 -155z m200 102 c47 -47 42 -165 -10 -206 -28 -22 -93 -36 -124
-26 -19 6 -20 14 -20 131 l0 124 65 0 c56 0 70 -4 89 -23z"/>
<path d="M3370 1255 l0 -155 85 0 c74 0 85 2 85 18 0 15 -8 17 -60 14 l-60 -4
0 61 0 61 55 0 c42 0 55 3 55 15 0 12 -13 15 -55 15 l-55 0 0 50 0 50 60 0
c47 0 60 3 60 15 0 12 -16 15 -85 15 l-85 0 0 -155z"/>
<path d="M4964 1388 c3 -13 6 -83 6 -155 l0 -133 26 0 27 0 -5 70 c-4 50 -2
70 6 67 6 -2 35 -33 65 -70 44 -55 59 -67 83 -67 l29 0 -47 61 c-26 33 -52 62
-56 65 -13 9 -9 34 6 34 20 0 66 57 66 81 0 11 -11 31 -25 44 -22 23 -32 25
-106 25 -79 0 -81 -1 -75 -22z m120 -8 c15 -5 28 -20 32 -36 6 -22 2 -32 -20
-51 -15 -13 -40 -23 -57 -23 -25 0 -29 4 -29 29 0 85 16 103 74 81z"/>
<path d="M5930 1255 l0 -155 80 0 c88 0 133 14 167 51 27 31 46 102 37 142
-19 92 -60 117 -193 117 l-91 0 0 -155z m201 96 c25 -26 29 -37 29 -88 0 -78
-24 -118 -80 -133 -23 -6 -54 -10 -68 -8 l-27 3 -3 128 -3 127 61 0 c55 0 65
-3 91 -29z"/>
<path d="M6258 1255 l3 -155 84 0 c69 0 85 3 85 15 0 12 -13 15 -60 15 l-60 0
0 60 0 60 50 0 c38 0 50 4 50 15 0 11 -12 15 -50 15 l-50 0 0 50 0 50 55 0
c42 0 55 3 55 15 0 12 -16 15 -82 15 l-83 0 3 -155z"/>
<path d="M4591 968 c-18 -5 -44 -16 -56 -24 -52 -34 -71 -137 -37 -204 19 -39
88 -80 135 -80 19 0 45 -14 76 -40 32 -27 54 -38 64 -34 26 10 20 21 -23 50
l-40 27 39 34 c99 84 68 238 -54 272 -46 13 -58 13 -104 -1z m108 -33 c45 -23
69 -99 52 -163 -15 -56 -51 -82 -111 -82 -80 0 -120 62 -107 163 11 80 92 121
166 82z"/>
<path d="M5079 972 c-13 -2 -15 -20 -15 -106 1 -118 -10 -150 -59 -166 -41
-14 -88 3 -104 36 -6 14 -11 72 -11 129 l0 105 -25 0 c-25 0 -25 0 -25 -97 0
-170 22 -203 135 -203 49 0 60 4 85 28 33 34 43 81 38 197 -2 67 -6 80 -19 77z"/>
<path d="M3127 949 c-42 -22 -76 -82 -77 -134 0 -49 40 -118 80 -137 39 -20
116 -23 173 -7 l37 10 0 64 c0 63 -1 65 -25 65 -24 0 -25 -3 -25 -60 l0 -60
-56 0 c-66 0 -89 10 -110 52 -19 37 -21 115 -5 147 16 29 69 61 101 61 14 0
43 -9 65 -20 48 -24 45 -24 45 0 0 43 -134 56 -203 19z"/>
<path d="M3410 855 c0 -133 11 -167 61 -184 72 -25 159 0 178 52 4 12 11 73
15 135 7 109 6 112 -13 112 -20 0 -21 -6 -21 -105 0 -145 -16 -175 -95 -175
-68 0 -93 65 -81 206 6 74 6 74 -19 74 l-25 0 0 -115z"/>
<path d="M3757 823 c-50 -109 -64 -149 -55 -154 17 -11 23 -3 45 56 l19 50 51
3 51 3 23 -61 c20 -49 28 -60 46 -60 13 0 23 3 23 8 0 16 -119 297 -127 299
-5 2 -39 -63 -76 -144z m86 25 l16 -38 -40 0 -39 0 20 41 c12 23 23 39 25 37
1 -1 10 -20 18 -40z"/>
<path d="M4136 898 c-43 -81 -43 -81 -92 15 -21 40 -29 47 -55 47 -21 0 -28
-4 -23 -12 4 -7 30 -48 56 -91 46 -73 49 -83 47 -135 -3 -54 -2 -57 21 -57 23
0 24 3 21 64 -2 61 0 67 48 147 28 45 51 85 51 88 0 3 -8 6 -17 6 -12 0 -32
-25 -57 -72z"/>
<path d="M4251 833 c-35 -76 -65 -144 -68 -150 -3 -8 3 -13 15 -13 15 0 24 13
38 53 l19 52 54 0 53 0 22 -55 c16 -40 28 -56 44 -58 13 -2 22 2 21 10 -1 23
-115 292 -125 295 -6 2 -38 -59 -73 -134z m84 14 l15 -37 -40 0 -40 0 20 41
c12 23 23 39 25 37 3 -2 11 -21 20 -41z"/>
<path d="M5160 820 l0 -150 25 0 25 0 0 150 0 150 -25 0 -25 0 0 -150z"/>
<path d="M5280 817 l0 -154 83 3 c65 3 83 6 85 19 3 14 -4 15 -57 9 l-61 -7 0
142 0 141 -25 0 -25 0 0 -153z"/>
</g>
</svg>
